<svg xmlns="http://www.w3.org/2000/svg"  viewBox="0 0 80 80" width="16px" height="16px"><path fill="#8bb7f0" d="M12.5,75.5v-71H70c0.827,0,1.5,0.673,1.5,1.5v68c0,0.827-0.673,1.5-1.5,1.5H12.5z"/><path fill="#4e7ab5" d="M70,5c0.551,0,1,0.449,1,1v68c0,0.551-0.449,1-1,1H13V5H70 M70,4H12v72h58c1.105,0,2-0.895,2-2V6 C72,4.895,71.105,4,70,4L70,4z"/><path fill="#4e7ab5" d="M18,76h-8c-1.105,0-2-0.895-2-2V6c0-1.105,0.895-2,2-2h8V76z"/><path fill="#fff" d="M44 24A8 8 0 1 0 44 40 8 8 0 1 0 44 24zM56 54c0-6.628-5.372-12-12-12-6.627 0-12 5.372-12 12H56z"/></svg>